<?xml version="1.0" encoding="UTF-8" standalone="no" ?>
<!DOCTYPE svg PUBLIC "-//W3C//DTD SVG 1.1//EN" "http://www.w3.org/Graphics/SVG/1.1/DTD/svg11.dtd">
<svg xmlns="http://www.w3.org/2000/svg" xmlns:xlink="http://www.w3.org/1999/xlink" version="1.1" width="1280" height="1024" viewBox="0 0 1280 1024" xml:space="preserve">
<desc>Created with Fabric.js 4.4.0</desc>
<defs>
</defs>
<g transform="matrix(1 0 0 1 640 512)" id="background-logo"  >
<rect style="stroke: none; stroke-width: 0; stroke-dasharray: none; stroke-linecap: butt; stroke-dashoffset: 0; stroke-linejoin: miter; stroke-miterlimit: 4; fill: rgb(255,255,255); fill-rule: nonzero; opacity: 1;"  paint-order="stroke"  x="-640" y="-512" rx="0" ry="0" width="1280" height="1024" />
</g>
<g transform="matrix(1.9211538461538462 0 0 1.9211538461538462 640.5673359194798 466.0369218109284)" id="logo-logo"  >
<g style=""  paint-order="stroke"   >
		<g transform="matrix(1.5939710562069258 0 0 -1.5939710562069258 0.38446581875712127 -9.444396063776423)"  >
<linearGradient id="SVGID_3_810856" gradientUnits="userSpaceOnUse" gradientTransform="matrix(1 0 0 1 -42.576 -21.289)"  x1="0" y1="0" x2="0" y2="43">
<stop offset="0%" style="stop-color:rgb(91,36,122);stop-opacity: 1"/>
<stop offset="100%" style="stop-color:rgb(27,206,223);stop-opacity: 1"/>
</linearGradient>
<path style="stroke: none; stroke-width: 1; stroke-dasharray: none; stroke-linecap: butt; stroke-dashoffset: 0; stroke-linejoin: miter; stroke-miterlimit: 4; fill: url(#SVGID_3_810856); fill-rule: nonzero; opacity: 1;"  paint-order="stroke"  transform=" translate(21.288, 0.0010000000000012221)" d="M 0 0 C 0 -11.758 -9.53 -21.289 -21.287 -21.289 C -33.045 -21.289 -42.576 -11.758000000000001 -42.576 0 C -42.576 11.756 -33.045 21.287 -21.287 21.287 C -9.53 21.287 0 11.756 0 0" stroke-linecap="round" />
</g>
		<g transform="matrix(1.5939710562069258 0 0 -1.5939710562069258 -5.684342e-14 -2.842171e-14)"  >
<linearGradient id="SVGID_3_810857" gradientUnits="userSpaceOnUse" gradientTransform="matrix(1 0 0 1 -181.614 -159.96583946263)"  x1="0" y1="0" x2="0" y2="160">
<stop offset="0%" style="stop-color:rgb(91,36,122);stop-opacity: 1"/>
<stop offset="100%" style="stop-color:rgb(27,206,223);stop-opacity: 1"/>
</linearGradient>
<path style="stroke: none; stroke-width: 1; stroke-dasharray: none; stroke-linecap: butt; stroke-dashoffset: 0; stroke-linejoin: miter; stroke-miterlimit: 4; fill: url(#SVGID_3_810857); fill-rule: nonzero; opacity: 1;"  paint-order="stroke"  transform=" translate(83.11400000000002, 79.96577375024148)" d="M 0 0 L -166.38 -11.092 C -174.852 -11.657 -181.614 -19.065 -181.614 -27.555999999999997 L -181.614 -120.52499999999999 C -181.614 -129.016 -174.701 -136.42399999999998 -166.229 -136.988 L -129.07100000000003 -139.468 L -109.01600000000002 -102.118 C -121.63300000000002 -90.553 -125.28100000000002 -71.48299999999999 -116.70700000000002 -55.788999999999994 C -106.62000000000002 -37.327 -83.48700000000002 -30.535999999999994 -65.02600000000002 -40.62299999999999 C -46.562000000000026 -50.71099999999999 -39.77800000000002 -73.85499999999999 -49.86600000000003 -92.31899999999999 C -58.374000000000024 -107.88899999999998 -76.17100000000002 -115.15699999999998 -92.61200000000002 -110.99999999999999 L -107.52800000000002 -140.908 C -107.52800000000002 -140.908 -113.17100000000002 -152.22 -115.05100000000002 -155.992 C -116.04100000000001 -157.977 -115.47400000000002 -161.79299999999998 -110.73700000000002 -158.94799999999998 C -102.22300000000003 -153.83499999999998 -89.83300000000003 -146.44699999999997 -87.12400000000002 -145.11199999999997 C -82.90700000000002 -143.03299999999996 -82.90700000000002 -143.03299999999996 -75.59500000000003 -143.03299999999996 C -68.28200000000002 -143.03299999999996 0.05699999999997374 -148.08099999999996 0.05699999999997374 -148.08099999999996 C 8.528999999999973 -148.64599999999996 15.385999999999974 -142.16099999999997 15.385999999999974 -133.67099999999996 L 15.385999999999974 -14.409 C 15.386 -5.92 8.472 0.565 0 0" stroke-linecap="round" />
</g>
</g>
</g>
<g transform="matrix(1.9211538461538462 0 0 1.9211538461538462 641.5413609194798 759.6876593754179)" id="text-logo-path-group"  >
<g style=""  paint-order="stroke"   >
		<g transform="matrix(1 0 0 1 -5.684342e-14 0)" id="text-logo-path-0"  >
<path style="stroke: none; stroke-width: 0; stroke-dasharray: none; stroke-linecap: butt; stroke-dashoffset: 0; stroke-linejoin: miter; stroke-miterlimit: 4; fill: rgb(49,46,129); fill-rule: nonzero; opacity: 1;"  paint-order="stroke"  transform=" translate(-210.525, 9.75)" d="M 1.64 -19.5 L 1.64 0 L 5.26 0 L 5.26 -8.11 L 14.63 -8.11 L 14.63 -19.5 Z M 5.26 -16.26 L 11 -16.26 L 11 -11.39 L 5.26 -11.39 Z M 17.86 -19.5 L 17.86 0 L 30.85 0 L 30.85 -19.5 Z M 21.49 -16.26 L 27.22 -16.26 L 27.22 -3.24 L 21.49 -3.24 Z M 34.09 -19.5 L 34.09 0 L 37.71 0 L 37.71 -8.11 L 39.66 -8.11 L 43.25 0 L 47.07 0 L 42.78 -9.75 L 47.07 -19.5 L 43.25 -19.5 L 39.66 -11.39 L 37.71 -11.39 L 37.71 -19.5 Z M 49.49 -19.5 L 49.49 0 L 62.48 0 L 62.48 -3.24 L 53.12 -3.24 L 53.12 -8.11 L 59.24 -8.11 L 59.24 -11.39 L 53.12 -11.39 L 53.12 -16.26 L 62.48 -16.26 L 62.48 -19.5 Z M 65.72 -19.5 L 65.72 0 L 69.34 0 L 69.34 -14.63 L 73.63 0 L 77.06 0 L 77.26 0 L 81.55 -14.63 L 81.55 0 L 85.22 0 L 85.22 -19.5 L 79.52 -19.5 L 75.47 -5.46 L 71.41 -19.5 Z M 88.45 -19.5 L 88.45 0 L 101.44 0 L 101.44 -19.5 Z M 92.08 -16.26 L 97.81 -16.26 L 97.81 -3.24 L 92.08 -3.24 Z M 104.68 -19.5 L 104.68 0 L 108.3 0 L 108.3 -12.17 L 113.61 0 L 117.66 0 L 117.66 -19.5 L 114.04 -19.5 L 114.04 -7.33 L 108.73 -19.5 Z M 127.37 -19.5 L 127.37 0 L 131 0 L 131 -8.11 L 132.95 -8.11 L 136.54 0 L 140.36 0 L 136.77 -8.11 L 140.36 -8.11 L 140.36 -19.5 Z M 131 -16.26 L 136.73 -16.26 L 136.73 -11.39 L 131 -11.39 Z M 143.6 -19.5 L 143.6 0 L 156.59 0 L 156.59 -3.24 L 147.22 -3.24 L 147.22 -8.11 L 153.35 -8.11 L 153.35 -11.39 L 147.22 -11.39 L 147.22 -16.26 L 156.59 -16.26 L 156.59 -19.5 Z M 159.82 -19.5 L 159.82 0 L 163.45 0 L 163.45 -12.17 L 168.75 0 L 172.81 0 L 172.81 -19.5 L 169.18 -19.5 L 169.18 -7.33 L 163.88 -19.5 Z M 176.05 -19.5 L 176.05 -16.26 L 180.73 -16.26 L 180.73 0 L 184.35 0 L 184.35 -16.26 L 189.03 -16.26 L 189.03 -19.5 Z M 192.27 -19.5 L 192.27 0 L 195.9 0 L 195.9 -8.11 L 201.63 -8.11 L 201.63 0 L 205.26 0 L 205.26 -19.5 Z M 195.9 -16.26 L 201.63 -16.26 L 201.63 -11.39 L 195.9 -11.39 Z M 208.49 -19.5 L 208.49 0 L 221.48 0 L 221.48 -3.24 L 212.12 -3.24 L 212.12 -19.5 Z M 231.19 -19.5 L 231.19 -16.26 L 235.87 -16.26 L 235.87 0 L 239.5 0 L 239.5 -16.26 L 244.18 -16.26 L 244.18 -19.5 Z M 247.42 -19.5 L 247.42 0 L 260.4 0 L 260.4 -3.24 L 251.04 -3.24 L 251.04 -8.11 L 257.17 -8.11 L 257.17 -11.39 L 251.04 -11.39 L 251.04 -16.26 L 260.4 -16.26 L 260.4 -19.5 Z M 263.64 -19.5 L 263.64 0 L 267.27 0 L 267.27 -8.11 L 273 -8.11 L 273 0 L 276.63 0 L 276.63 -19.5 Z M 267.27 -16.26 L 273 -16.26 L 273 -11.39 L 267.27 -11.39 Z M 279.86 -19.5 L 279.86 0 L 283.49 0 L 283.49 -14.63 L 287.78 0 L 291.21 0 L 291.41 0 L 295.7 -14.63 L 295.7 0 L 299.36 0 L 299.36 -19.5 L 293.67 -19.5 L 289.61 -5.46 L 285.56 -19.5 Z M 302.6 -19.5 L 302.6 -8.11 L 311.96 -8.11 L 311.96 -3.24 L 302.6 -3.24 L 302.6 0 L 315.59 0 L 315.59 -11.39 L 306.23 -11.39 L 306.23 -16.26 L 315.59 -16.26 L 315.59 -19.5 Z M 325.3 -19.5 L 325.3 -8.11 L 334.66 -8.11 L 334.66 -3.24 L 325.3 -3.24 L 325.3 0 L 338.29 0 L 338.29 -11.39 L 328.93 -11.39 L 328.93 -16.26 L 338.29 -16.26 L 338.29 -19.5 Z M 341.52 -19.5 L 341.52 0 L 354.51 0 L 354.51 -3.24 L 345.15 -3.24 L 345.15 -8.11 L 351.27 -8.11 L 351.27 -11.39 L 345.15 -11.39 L 345.15 -16.26 L 354.51 -16.26 L 354.51 -19.5 Z M 357.75 -19.5 L 357.75 0 L 361.37 0 L 361.37 -8.11 L 367.11 -8.11 L 367.11 0 L 370.73 0 L 370.73 -19.5 Z M 361.37 -16.26 L 367.11 -16.26 L 367.11 -11.39 L 361.37 -11.39 Z M 373.97 -19.5 L 373.97 0 L 377.6 0 L 377.6 -8.11 L 379.55 -8.11 L 383.14 0 L 386.96 0 L 383.37 -8.11 L 386.96 -8.11 L 386.96 -19.5 Z M 377.6 -16.26 L 383.33 -16.26 L 383.33 -11.39 L 377.6 -11.39 Z M 390.19 -19.5 L 390.19 0 L 403.18 0 L 403.18 -3.24 L 393.82 -3.24 L 393.82 -16.26 L 403.18 -16.26 L 403.18 -19.5 Z M 406.42 -19.5 L 406.42 0 L 410.05 0 L 410.05 -8.11 L 415.78 -8.11 L 415.78 0 L 419.41 0 L 419.41 -19.5 L 415.78 -19.5 L 415.78 -11.39 L 410.05 -11.39 L 410.05 -19.5 Z" stroke-linecap="round" />
</g>
</g>
</g>
</svg>