<?xml version="1.0" encoding="UTF-8" standalone="no" ?>
<!DOCTYPE svg PUBLIC "-//W3C//DTD SVG 1.1//EN" "http://www.w3.org/Graphics/SVG/1.1/DTD/svg11.dtd">
<svg xmlns="http://www.w3.org/2000/svg" xmlns:xlink="http://www.w3.org/1999/xlink" version="1.1" width="1280" height="1024" viewBox="0 0 1280 1024" xml:space="preserve">
<desc>Created with Fabric.js 4.4.0</desc>
<defs>
</defs>
<g transform="matrix(1 0 0 1 640 512)" id="background-logo"  >
<rect style="stroke: none; stroke-width: 0; stroke-dasharray: none; stroke-linecap: butt; stroke-dashoffset: 0; stroke-linejoin: miter; stroke-miterlimit: 4; fill: rgb(255,255,255); fill-rule: nonzero; opacity: 1;"  paint-order="stroke"  x="-640" y="-512" rx="0" ry="0" width="1280" height="1024" />
</g>
<g transform="matrix(1.9211538461538462 0 0 1.9211538461538462 640 358.8998798960028)" id="logo-logo"  >
<g style=""  paint-order="stroke"   >
		<g transform="matrix(1.5939710562069258 0 0 -1.5939710562069258 0.38446581875712127 -9.444396063776423)"  >
<linearGradient id="SVGID_661709" gradientUnits="userSpaceOnUse" gradientTransform="matrix(1 0 0 1 -42.576 -21.289)"  x1="0" y1="0" x2="0" y2="43">
<stop offset="0%" style="stop-color:rgb(91,36,122);stop-opacity: 1"/>
<stop offset="100%" style="stop-color:rgb(27,206,223);stop-opacity: 1"/>
</linearGradient>
<path style="stroke: none; stroke-width: 1; stroke-dasharray: none; stroke-linecap: butt; stroke-dashoffset: 0; stroke-linejoin: miter; stroke-miterlimit: 4; fill: url(#SVGID_661709); fill-rule: nonzero; opacity: 1;"  paint-order="stroke"  transform=" translate(21.288, 0.0010000000000012221)" d="M 0 0 C 0 -11.758 -9.53 -21.289 -21.287 -21.289 C -33.045 -21.289 -42.576 -11.758000000000001 -42.576 0 C -42.576 11.756 -33.045 21.287 -21.287 21.287 C -9.53 21.287 0 11.756 0 0" stroke-linecap="round" />
</g>
		<g transform="matrix(1.5939710562069258 0 0 -1.5939710562069258 -5.684342e-14 -2.842171e-14)"  >
<linearGradient id="SVGID_661710" gradientUnits="userSpaceOnUse" gradientTransform="matrix(1 0 0 1 -181.614 -159.96583946263)"  x1="0" y1="0" x2="0" y2="160">
<stop offset="0%" style="stop-color:rgb(91,36,122);stop-opacity: 1"/>
<stop offset="100%" style="stop-color:rgb(27,206,223);stop-opacity: 1"/>
</linearGradient>
<path style="stroke: none; stroke-width: 1; stroke-dasharray: none; stroke-linecap: butt; stroke-dashoffset: 0; stroke-linejoin: miter; stroke-miterlimit: 4; fill: url(#SVGID_661710); fill-rule: nonzero; opacity: 1;"  paint-order="stroke"  transform=" translate(83.11400000000002, 79.96577375024148)" d="M 0 0 L -166.38 -11.092 C -174.852 -11.657 -181.614 -19.065 -181.614 -27.555999999999997 L -181.614 -120.52499999999999 C -181.614 -129.016 -174.701 -136.42399999999998 -166.229 -136.988 L -129.07100000000003 -139.468 L -109.01600000000002 -102.118 C -121.63300000000002 -90.553 -125.28100000000002 -71.48299999999999 -116.70700000000002 -55.788999999999994 C -106.62000000000002 -37.327 -83.48700000000002 -30.535999999999994 -65.02600000000002 -40.62299999999999 C -46.562000000000026 -50.71099999999999 -39.77800000000002 -73.85499999999999 -49.86600000000003 -92.31899999999999 C -58.374000000000024 -107.88899999999998 -76.17100000000002 -115.15699999999998 -92.61200000000002 -110.99999999999999 L -107.52800000000002 -140.908 C -107.52800000000002 -140.908 -113.17100000000002 -152.22 -115.05100000000002 -155.992 C -116.04100000000001 -157.977 -115.47400000000002 -161.79299999999998 -110.73700000000002 -158.94799999999998 C -102.22300000000003 -153.83499999999998 -89.83300000000003 -146.44699999999997 -87.12400000000002 -145.11199999999997 C -82.90700000000002 -143.03299999999996 -82.90700000000002 -143.03299999999996 -75.59500000000003 -143.03299999999996 C -68.28200000000002 -143.03299999999996 0.05699999999997374 -148.08099999999996 0.05699999999997374 -148.08099999999996 C 8.528999999999973 -148.64599999999996 15.385999999999974 -142.16099999999997 15.385999999999974 -133.67099999999996 L 15.385999999999974 -14.409 C 15.386 -5.92 8.472 0.565 0 0" stroke-linecap="round" />
</g>
</g>
</g>
<g transform="matrix(1.9211538461538462 0 0 1.9211538461538462 641.4600769230769 727.0539213543605)" id="text-logo-path-group"  >
<g style=""  paint-order="stroke"   >
		<g transform="matrix(1 0 0 1 0 -21.615999999999985)" id="text-logo-path-0"  >
<path style="stroke: none; stroke-width: 0; stroke-dasharray: none; stroke-linecap: butt; stroke-dashoffset: 0; stroke-linejoin: miter; stroke-miterlimit: 4; fill: rgb(49,46,129); fill-rule: nonzero; opacity: 1;"  paint-order="stroke"  transform=" translate(-174.95999999999998, 10.82)" d="M 7.4 9.2 L 2.16 9.2 L 2.16 9.2 L 2.16 -23.2 L 20.2 -23.2 Q 21.72 -23.2 22.98 -22.44 Q 24.24 -21.68 24.98 -20.44 Q 25.72 -19.2 25.72 -17.68 L 25.72 -17.68 L 25.72 -5.52 Q 25.72 -4 24.98 -2.76 Q 24.24 -1.52 22.98 -0.76 Q 21.72 0 20.2 0 L 20.2 0 L 7.4 0 L 7.4 9.2 Z M 7.88 -5.24 L 7.88 -5.24 L 20 -5.24 Q 20.2 -5.24 20.34 -5.38 Q 20.48 -5.52 20.48 -5.72 L 20.48 -5.72 L 20.48 -17.48 Q 20.48 -17.68 20.34 -17.82 Q 20.2 -17.96 20 -17.96 L 20 -17.96 L 7.88 -17.96 Q 7.68 -17.96 7.54 -17.82 Q 7.4 -17.68 7.4 -17.48 L 7.4 -17.48 L 7.4 -5.72 Q 7.4 -5.52 7.54 -5.38 Q 7.68 -5.24 7.88 -5.24 Z M 46.64 0 L 34.12 0 Q 32.6 0 31.36 -0.76 Q 30.12 -1.52 29.36 -2.76 Q 28.6 -4 28.6 -5.52 L 28.6 -5.52 L 28.6 -17.68 Q 28.6 -19.2 29.36 -20.44 Q 30.12 -21.68 31.36 -22.44 Q 32.6 -23.2 34.12 -23.2 L 34.12 -23.2 L 46.64 -23.2 Q 48.16 -23.2 49.42 -22.44 Q 50.68 -21.68 51.42 -20.44 Q 52.16 -19.2 52.16 -17.68 L 52.16 -17.68 L 52.16 -5.52 Q 52.16 -4 51.42 -2.76 Q 50.68 -1.52 49.44 -0.76 Q 48.2 0 46.64 0 L 46.64 0 Z M 34.32 -5.24 L 34.32 -5.24 L 46.44 -5.24 Q 46.64 -5.24 46.78 -5.38 Q 46.92 -5.52 46.92 -5.72 L 46.92 -5.72 L 46.92 -17.48 Q 46.92 -17.68 46.78 -17.82 Q 46.64 -17.96 46.44 -17.96 L 46.44 -17.96 L 34.32 -17.96 Q 34.12 -17.96 33.98 -17.82 Q 33.84 -17.68 33.84 -17.48 L 33.84 -17.48 L 33.84 -5.72 Q 33.84 -5.52 33.98 -5.38 Q 34.12 -5.24 34.32 -5.24 Z M 61.64 0 L 56.4 0 L 56.4 0 L 56.4 -30.8 L 61.64 -30.8 L 61.64 -14.24 L 65.76 -14.24 L 74.04 -23.2 L 79.64 -23.2 L 79.64 -21.76 L 70.4 -11.6 L 79.6 -1.44 L 79.6 0 L 74.04 0 L 65.76 -8.96 L 61.64 -8.96 L 61.64 0 Z M 105.6 0 L 87.56 0 Q 86.04 0 84.8 -0.76 Q 83.56 -1.52 82.8 -2.76 Q 82.04 -4 82.04 -5.52 L 82.04 -5.52 L 82.04 -17.68 Q 82.04 -19.2 82.8 -20.44 Q 83.56 -21.68 84.8 -22.44 Q 86.04 -23.2 87.56 -23.2 L 87.56 -23.2 L 100.08 -23.2 Q 101.6 -23.2 102.86 -22.44 Q 104.12 -21.68 104.86 -20.44 Q 105.6 -19.2 105.6 -17.68 L 105.6 -17.68 L 105.6 -8.96 L 87.28 -8.96 L 87.28 -5.72 Q 87.28 -5.52 87.42 -5.38 Q 87.56 -5.24 87.76 -5.24 L 87.76 -5.24 L 105.6 -5.24 L 105.6 0 Z M 87.28 -17.48 L 87.28 -13.68 L 100.36 -13.68 L 100.36 -17.48 Q 100.36 -17.68 100.22 -17.82 Q 100.08 -17.96 99.88 -17.96 L 99.88 -17.96 L 87.76 -17.96 Q 87.56 -17.96 87.42 -17.82 Q 87.28 -17.68 87.28 -17.48 L 87.28 -17.48 Z M 115.08 0 L 109.84 0 L 109.84 0 L 109.84 -23.2 L 138.6 -23.2 Q 140.16 -23.2 141.4 -22.44 Q 142.64 -21.68 143.38 -20.44 Q 144.12 -19.2 144.12 -17.68 L 144.12 -17.68 L 144.12 0 L 138.92 0 L 138.92 -17.48 Q 138.92 -17.68 138.76 -17.82 Q 138.6 -17.96 138.4 -17.96 L 138.4 -17.96 L 130.12 -17.96 Q 129.92 -17.96 129.78 -17.82 Q 129.64 -17.68 129.64 -17.48 L 129.64 -17.48 L 129.64 0 L 124.36 0 L 124.36 -17.48 Q 124.36 -17.68 124.22 -17.82 Q 124.08 -17.96 123.88 -17.96 L 123.88 -17.96 L 115.56 -17.96 Q 115.36 -17.96 115.22 -17.82 Q 115.08 -17.68 115.08 -17.48 L 115.08 -17.48 L 115.08 0 Z M 166.88 0 L 154.36 0 Q 152.84 0 151.6 -0.76 Q 150.36 -1.52 149.6 -2.76 Q 148.84 -4 148.84 -5.52 L 148.84 -5.52 L 148.84 -17.68 Q 148.84 -19.2 149.6 -20.44 Q 150.36 -21.68 151.6 -22.44 Q 152.84 -23.2 154.36 -23.2 L 154.36 -23.2 L 166.88 -23.2 Q 168.4 -23.2 169.66 -22.44 Q 170.92 -21.68 171.66 -20.44 Q 172.4 -19.2 172.4 -17.68 L 172.4 -17.68 L 172.4 -5.52 Q 172.4 -4 171.66 -2.76 Q 170.92 -1.52 169.68 -0.76 Q 168.44 0 166.88 0 L 166.88 0 Z M 154.56 -5.24 L 154.56 -5.24 L 166.68 -5.24 Q 166.88 -5.24 167.02 -5.38 Q 167.16 -5.52 167.16 -5.72 L 167.16 -5.72 L 167.16 -17.48 Q 167.16 -17.68 167.02 -17.82 Q 166.88 -17.96 166.68 -17.96 L 166.68 -17.96 L 154.56 -17.96 Q 154.36 -17.96 154.22 -17.82 Q 154.08 -17.68 154.08 -17.48 L 154.08 -17.48 L 154.08 -5.72 Q 154.08 -5.52 154.22 -5.38 Q 154.36 -5.24 154.56 -5.24 Z M 180.88 0 L 175.64 0 L 175.64 0 L 175.64 -23.2 L 193.68 -23.2 Q 195.2 -23.2 196.46 -22.44 Q 197.72 -21.68 198.46 -20.44 Q 199.2 -19.2 199.2 -17.68 L 199.2 -17.68 L 199.2 0 L 193.96 0 L 193.96 -17.48 Q 193.96 -17.68 193.82 -17.82 Q 193.68 -17.96 193.48 -17.96 L 193.48 -17.96 L 181.36 -17.96 Q 181.16 -17.96 181.02 -17.82 Q 180.88 -17.68 180.88 -17.48 L 180.88 -17.48 L 180.88 0 Z M 220.88 0 L 215.64 0 L 215.64 0 L 215.64 -17.68 Q 215.64 -19.2 216.4 -20.44 Q 217.16 -21.68 218.42 -22.44 Q 219.68 -23.2 221.16 -23.2 L 221.16 -23.2 L 234.04 -23.2 L 234.04 -17.96 L 221.36 -17.96 Q 221.16 -17.96 221.02 -17.82 Q 220.88 -17.68 220.88 -17.48 L 220.88 -17.48 L 220.88 0 Z M 260.32 0 L 242.28 0 Q 240.76 0 239.52 -0.76 Q 238.28 -1.52 237.52 -2.76 Q 236.76 -4 236.76 -5.52 L 236.76 -5.52 L 236.76 -17.68 Q 236.76 -19.2 237.52 -20.44 Q 238.28 -21.68 239.52 -22.44 Q 240.76 -23.2 242.28 -23.2 L 242.28 -23.2 L 254.8 -23.2 Q 256.32 -23.2 257.58 -22.44 Q 258.84 -21.68 259.58 -20.44 Q 260.32 -19.2 260.32 -17.68 L 260.32 -17.68 L 260.32 -8.96 L 242 -8.96 L 242 -5.72 Q 242 -5.52 242.14 -5.38 Q 242.28 -5.24 242.48 -5.24 L 242.48 -5.24 L 260.32 -5.24 L 260.32 0 Z M 242 -17.48 L 242 -13.68 L 255.08 -13.68 L 255.08 -17.48 Q 255.08 -17.68 254.94 -17.82 Q 254.8 -17.96 254.6 -17.96 L 254.6 -17.96 L 242.48 -17.96 Q 242.28 -17.96 242.14 -17.82 Q 242 -17.68 242 -17.48 L 242 -17.48 Z M 269.8 0 L 264.56 0 L 264.56 0 L 264.56 -23.2 L 282.6 -23.2 Q 284.12 -23.2 285.38 -22.44 Q 286.64 -21.68 287.38 -20.44 Q 288.12 -19.2 288.12 -17.68 L 288.12 -17.68 L 288.12 0 L 282.88 0 L 282.88 -17.48 Q 282.88 -17.68 282.74 -17.82 Q 282.6 -17.96 282.4 -17.96 L 282.4 -17.96 L 270.28 -17.96 Q 270.08 -17.96 269.94 -17.82 Q 269.8 -17.68 269.8 -17.48 L 269.8 -17.48 L 269.8 0 Z M 306.64 0 L 297.88 0 Q 296.36 0 295.12 -0.76 Q 293.88 -1.52 293.12 -2.76 Q 292.36 -4 292.36 -5.52 L 292.36 -5.52 L 292.36 -30.32 L 297.6 -30.32 L 297.6 -23.2 L 306.64 -23.2 L 306.64 -17.96 L 297.6 -17.96 L 297.6 -5.72 Q 297.6 -5.52 297.74 -5.38 Q 297.88 -5.24 298.08 -5.24 L 298.08 -5.24 L 306.64 -5.24 L 306.64 0 Z M 334.24 0 L 316.2 0 Q 314.68 0 313.42 -0.76 Q 312.16 -1.52 311.42 -2.76 Q 310.68 -4 310.68 -5.52 L 310.68 -5.52 L 310.68 -14.24 L 329 -14.24 L 329 -17.48 Q 329 -17.68 328.86 -17.82 Q 328.72 -17.96 328.52 -17.96 L 328.52 -17.96 L 310.68 -17.96 L 310.68 -23.2 L 328.72 -23.2 Q 330.24 -23.2 331.5 -22.44 Q 332.76 -21.68 333.5 -20.44 Q 334.24 -19.2 334.24 -17.68 L 334.24 -17.68 L 334.24 0 Z M 316.4 -5.24 L 316.4 -5.24 L 329 -5.24 L 329 -9.52 L 315.92 -9.52 L 315.92 -5.72 Q 315.92 -5.52 316.06 -5.38 Q 316.2 -5.24 316.4 -5.24 Z M 347.76 0 L 343.08 0 Q 341.56 0 340.32 -0.76 Q 339.08 -1.52 338.32 -2.76 Q 337.56 -4 337.56 -5.52 L 337.56 -5.52 L 337.56 -30.84 L 342.84 -30.84 L 342.84 -5.72 Q 342.84 -5.52 342.98 -5.38 Q 343.12 -5.24 343.32 -5.24 L 343.32 -5.24 L 347.76 -5.24 L 347.76 0 Z" stroke-linecap="round" />
</g>
		<g transform="matrix(1 0 0 1 -0.18000000000000682 26.23599999999999)" id="text-logo-path-1"  >
<path style="stroke: none; stroke-width: 0; stroke-dasharray: none; stroke-linecap: butt; stroke-dashoffset: 0; stroke-linejoin: miter; stroke-miterlimit: 4; fill: rgb(49,46,129); fill-rule: nonzero; opacity: 1;"  paint-order="stroke"  transform=" translate(-153.78, 15.4)" d="M 16.4 0 L 7.64 0 Q 6.12 0 4.88 -0.76 Q 3.64 -1.52 2.88 -2.76 Q 2.12 -4 2.12 -5.52 L 2.12 -5.52 L 2.12 -30.32 L 7.36 -30.32 L 7.36 -23.2 L 16.4 -23.2 L 16.4 -17.96 L 7.36 -17.96 L 7.36 -5.72 Q 7.36 -5.52 7.5 -5.38 Q 7.64 -5.24 7.84 -5.24 L 7.84 -5.24 L 16.4 -5.24 L 16.4 0 Z M 43.12 0 L 25.08 0 Q 23.56 0 22.32 -0.76 Q 21.08 -1.52 20.32 -2.76 Q 19.56 -4 19.56 -5.52 L 19.56 -5.52 L 19.56 -17.68 Q 19.56 -19.2 20.32 -20.44 Q 21.08 -21.68 22.32 -22.44 Q 23.56 -23.2 25.08 -23.2 L 25.08 -23.2 L 37.6 -23.2 Q 39.12 -23.2 40.38 -22.44 Q 41.64 -21.68 42.38 -20.44 Q 43.12 -19.2 43.12 -17.68 L 43.12 -17.68 L 43.12 -8.96 L 24.8 -8.96 L 24.8 -5.72 Q 24.8 -5.52 24.94 -5.38 Q 25.08 -5.24 25.28 -5.24 L 25.28 -5.24 L 43.12 -5.24 L 43.12 0 Z M 24.8 -17.48 L 24.8 -13.68 L 37.88 -13.68 L 37.88 -17.48 Q 37.88 -17.68 37.74 -17.82 Q 37.6 -17.96 37.4 -17.96 L 37.4 -17.96 L 25.28 -17.96 Q 25.08 -17.96 24.94 -17.82 Q 24.8 -17.68 24.8 -17.48 L 24.8 -17.48 Z M 70.84 0 L 52.8 0 Q 51.28 0 50.02 -0.76 Q 48.76 -1.52 48.02 -2.76 Q 47.28 -4 47.28 -5.52 L 47.28 -5.52 L 47.28 -14.24 L 65.6 -14.24 L 65.6 -17.48 Q 65.6 -17.68 65.46 -17.82 Q 65.32 -17.96 65.12 -17.96 L 65.12 -17.96 L 47.28 -17.96 L 47.28 -23.2 L 65.32 -23.2 Q 66.84 -23.2 68.1 -22.44 Q 69.36 -21.68 70.1 -20.44 Q 70.84 -19.2 70.84 -17.68 L 70.84 -17.68 L 70.84 0 Z M 53 -5.24 L 53 -5.24 L 65.6 -5.24 L 65.6 -9.52 L 52.52 -9.52 L 52.52 -5.72 Q 52.52 -5.52 52.66 -5.38 Q 52.8 -5.24 53 -5.24 Z M 79.32 0 L 74.08 0 L 74.08 0 L 74.08 -23.2 L 102.84 -23.2 Q 104.4 -23.2 105.64 -22.44 Q 106.88 -21.68 107.62 -20.44 Q 108.36 -19.2 108.36 -17.68 L 108.36 -17.68 L 108.36 0 L 103.16 0 L 103.16 -17.48 Q 103.16 -17.68 103 -17.82 Q 102.84 -17.96 102.64 -17.96 L 102.64 -17.96 L 94.36 -17.96 Q 94.16 -17.96 94.02 -17.82 Q 93.88 -17.68 93.88 -17.48 L 93.88 -17.48 L 93.88 0 L 88.6 0 L 88.6 -17.48 Q 88.6 -17.68 88.46 -17.82 Q 88.32 -17.96 88.12 -17.96 L 88.12 -17.96 L 79.8 -17.96 Q 79.6 -17.96 79.46 -17.82 Q 79.32 -17.68 79.32 -17.48 L 79.32 -17.48 L 79.32 0 Z M 131 0 L 118.48 0 Q 116.96 0 115.72 -0.76 Q 114.48 -1.52 113.72 -2.76 Q 112.96 -4 112.96 -5.52 L 112.96 -5.52 L 112.96 -6.4 L 118.2 -6.4 L 118.2 -5.72 Q 118.2 -5.52 118.34 -5.38 Q 118.48 -5.24 118.68 -5.24 L 118.68 -5.24 L 130.8 -5.24 Q 131 -5.24 131.14 -5.38 Q 131.28 -5.52 131.28 -5.72 L 131.28 -5.72 L 131.28 -8.48 Q 131.28 -8.68 131.14 -8.82 Q 131 -8.96 130.8 -8.96 L 130.8 -8.96 L 118.48 -8.96 Q 116.96 -8.96 115.72 -9.72 Q 114.48 -10.48 113.72 -11.72 Q 112.96 -12.96 112.96 -14.48 L 112.96 -14.48 L 112.96 -17.68 Q 112.96 -19.2 113.72 -20.44 Q 114.48 -21.68 115.72 -22.44 Q 116.96 -23.2 118.48 -23.2 L 118.48 -23.2 L 131 -23.2 Q 132.56 -23.2 133.8 -22.44 Q 135.04 -21.68 135.8 -20.44 Q 136.56 -19.2 136.56 -17.68 L 136.56 -17.68 L 136.56 -16.8 L 131.28 -16.8 L 131.28 -17.48 Q 131.28 -17.68 131.14 -17.82 Q 131 -17.96 130.8 -17.96 L 130.8 -17.96 L 118.68 -17.96 Q 118.48 -17.96 118.34 -17.82 Q 118.2 -17.68 118.2 -17.48 L 118.2 -17.48 L 118.2 -14.72 Q 118.2 -14.52 118.34 -14.38 Q 118.48 -14.24 118.68 -14.24 L 118.68 -14.24 L 131 -14.24 Q 132.56 -14.24 133.8 -13.48 Q 135.04 -12.72 135.8 -11.48 Q 136.56 -10.24 136.56 -8.72 L 136.56 -8.72 L 136.56 -5.52 Q 136.56 -4 135.8 -2.76 Q 135.04 -1.52 133.8 -0.76 Q 132.56 0 131 0 L 131 0 Z M 170.68 0 L 158.16 0 Q 156.64 0 155.4 -0.76 Q 154.16 -1.52 153.4 -2.76 Q 152.64 -4 152.64 -5.52 L 152.64 -5.52 L 152.64 -6.4 L 157.88 -6.4 L 157.88 -5.72 Q 157.88 -5.52 158.02 -5.38 Q 158.16 -5.24 158.36 -5.24 L 158.36 -5.24 L 170.48 -5.24 Q 170.68 -5.24 170.82 -5.38 Q 170.96 -5.52 170.96 -5.72 L 170.96 -5.72 L 170.96 -8.48 Q 170.96 -8.68 170.82 -8.82 Q 170.68 -8.96 170.48 -8.96 L 170.48 -8.96 L 158.16 -8.96 Q 156.64 -8.96 155.4 -9.72 Q 154.16 -10.48 153.4 -11.72 Q 152.64 -12.96 152.64 -14.48 L 152.64 -14.48 L 152.64 -17.68 Q 152.64 -19.2 153.4 -20.44 Q 154.16 -21.68 155.4 -22.44 Q 156.64 -23.2 158.16 -23.2 L 158.16 -23.2 L 170.68 -23.2 Q 172.24 -23.2 173.48 -22.44 Q 174.72 -21.68 175.48 -20.44 Q 176.24 -19.2 176.24 -17.68 L 176.24 -17.68 L 176.24 -16.8 L 170.96 -16.8 L 170.96 -17.48 Q 170.96 -17.68 170.82 -17.82 Q 170.68 -17.96 170.48 -17.96 L 170.48 -17.96 L 158.36 -17.96 Q 158.16 -17.96 158.02 -17.82 Q 157.88 -17.68 157.88 -17.48 L 157.88 -17.48 L 157.88 -14.72 Q 157.88 -14.52 158.02 -14.38 Q 158.16 -14.24 158.36 -14.24 L 158.36 -14.24 L 170.68 -14.24 Q 172.24 -14.24 173.48 -13.48 Q 174.72 -12.72 175.48 -11.48 Q 176.24 -10.24 176.24 -8.72 L 176.24 -8.72 L 176.24 -5.52 Q 176.24 -4 175.48 -2.76 Q 174.72 -1.52 173.48 -0.76 Q 172.24 0 170.68 0 L 170.68 0 Z M 203 0 L 184.96 0 Q 183.44 0 182.2 -0.76 Q 180.96 -1.52 180.2 -2.76 Q 179.44 -4 179.44 -5.52 L 179.44 -5.52 L 179.44 -17.68 Q 179.44 -19.2 180.2 -20.44 Q 180.96 -21.68 182.2 -22.44 Q 183.44 -23.2 184.96 -23.2 L 184.96 -23.2 L 197.48 -23.2 Q 199 -23.2 200.26 -22.44 Q 201.52 -21.68 202.26 -20.44 Q 203 -19.2 203 -17.68 L 203 -17.68 L 203 -8.96 L 184.68 -8.96 L 184.68 -5.72 Q 184.68 -5.52 184.82 -5.38 Q 184.96 -5.24 185.16 -5.24 L 185.16 -5.24 L 203 -5.24 L 203 0 Z M 184.68 -17.48 L 184.68 -13.68 L 197.76 -13.68 L 197.76 -17.48 Q 197.76 -17.68 197.62 -17.82 Q 197.48 -17.96 197.28 -17.96 L 197.28 -17.96 L 185.16 -17.96 Q 184.96 -17.96 184.82 -17.82 Q 184.68 -17.68 184.68 -17.48 L 184.68 -17.48 Z M 230.72 0 L 212.68 0 Q 211.16 0 209.9 -0.76 Q 208.64 -1.52 207.9 -2.76 Q 207.16 -4 207.16 -5.52 L 207.16 -5.52 L 207.16 -14.24 L 225.48 -14.24 L 225.48 -17.48 Q 225.48 -17.68 225.34 -17.82 Q 225.2 -17.96 225 -17.96 L 225 -17.96 L 207.16 -17.96 L 207.16 -23.2 L 225.2 -23.2 Q 226.72 -23.2 227.98 -22.44 Q 229.24 -21.68 229.98 -20.44 Q 230.72 -19.2 230.72 -17.68 L 230.72 -17.68 L 230.72 0 Z M 212.88 -5.24 L 212.88 -5.24 L 225.48 -5.24 L 225.48 -9.52 L 212.4 -9.52 L 212.4 -5.72 Q 212.4 -5.52 212.54 -5.38 Q 212.68 -5.24 212.88 -5.24 Z M 239.36 0 L 234.12 0 L 234.12 0 L 234.12 -17.68 Q 234.12 -19.2 234.88 -20.44 Q 235.64 -21.68 236.9 -22.44 Q 238.16 -23.2 239.64 -23.2 L 239.64 -23.2 L 252.52 -23.2 L 252.52 -17.96 L 239.84 -17.96 Q 239.64 -17.96 239.5 -17.82 Q 239.36 -17.68 239.36 -17.48 L 239.36 -17.48 L 239.36 0 Z M 278.52 0 L 260.48 0 Q 258.96 0 257.72 -0.76 Q 256.48 -1.52 255.72 -2.76 Q 254.96 -4 254.96 -5.52 L 254.96 -5.52 L 254.96 -17.68 Q 254.96 -19.2 255.72 -20.44 Q 256.48 -21.68 257.72 -22.44 Q 258.96 -23.2 260.48 -23.2 L 260.48 -23.2 L 278.48 -23.2 L 278.48 -17.96 L 260.68 -17.96 Q 260.48 -17.96 260.34 -17.82 Q 260.2 -17.68 260.2 -17.48 L 260.2 -17.48 L 260.2 -5.72 Q 260.2 -5.52 260.34 -5.38 Q 260.48 -5.24 260.68 -5.24 L 260.68 -5.24 L 278.52 -5.24 L 278.52 0 Z M 287.12 0 L 281.88 0 L 281.88 0 L 281.88 -30.8 L 287.12 -30.8 L 287.12 -23.2 L 299.92 -23.2 Q 301.44 -23.2 302.68 -22.44 Q 303.92 -21.68 304.68 -20.44 Q 305.44 -19.2 305.44 -17.68 L 305.44 -17.68 L 305.44 0 L 300.2 0 L 300.2 -17.48 Q 300.2 -17.68 300.06 -17.82 Q 299.92 -17.96 299.72 -17.96 L 299.72 -17.96 L 287.6 -17.96 Q 287.4 -17.96 287.26 -17.82 Q 287.12 -17.68 287.12 -17.48 L 287.12 -17.48 L 287.12 0 Z" stroke-linecap="round" />
</g>
</g>
</g>
</svg>